# xmcd
#
# Track frame offsets:
#	150
#	17420
#	36355
#	52795
#	71300
#	82360
#	104887
#	122602
#	138502
#	157947
#	175380
#	192650
#	211582
#	228022
#	246527
#	257587
#	280112
#	297830
#	313727
#	333170
#
# Disc length: 4674 seconds
#
# Revision: 1
# Processed by: cddbd v1.5.1PL2 Copyright (c) Steve Scherf et al.
# Submitted via: audiograbber 1.83.01
#
DISCID=20124014
DTITLE=Top Hits Monthly Country - THMC0503
DYEAR=2005
DGENRE=Karaoke
TTITLE0=Jimmy Wayne (Vocal) - Paper Angels
TTITLE1=Montgomery Gentry (Vocal) - Gone
TTITLE2=Toby Keith With Krystal (Voca - Mockingbird
TTITLE3=Blaine Larsen (Vocal) - How Do You Get That Lonel
TTITLE4=Joe Nichols (Vocal) - What's A Guy Gotta Do
TTITLE5=Chely Wright (Vocal) - Bumper Of My S U V
TTITLE6=Brooks And Dunn (Vocal) - It's Getting Better All The
TTITLE7=Phil Vassar (Vocal) - I'll Take That As A Yes 
TTITLE8=Martina Mcbride (Vocal) - God's Will
TTITLE9=Sawyer Brown Feat Robert (Vocal) - Mission Temple Fireworks
TTITLE10=Jimmy Wayne - Paper Angels
TTITLE11=Montgomery Gentry - Gone
TTITLE12=Toby Keith With Krystal - Mockingbird
TTITLE13=Blaine Larsen - How Do You Get That Lonel
TTITLE14=Joe Nichols - What's A Guy Gotta Do
TTITLE15=Chely Wright - Bumper Of My S U V
TTITLE16=Brooks And Dunn - It's Getting Better All The
TTITLE17=Phil Vassar - I'll Take That As A Yes
TTITLE18=Martina Mcbride - God's Will
TTITLE19=Sawyer Brown Feat Robert - Mission Temple Fireworks
EXTD=
EXTT0=
EXTT1=
EXTT2=
EXTT3=
EXTT4=
EXTT5=
EXTT6=
EXTT7=
EXTT8=
EXTT9=
EXTT10=
EXTT11=
EXTT12=
EXTT13=
EXTT14=
EXTT15=
EXTT16=
EXTT17=
EXTT18=
EXTT19=
PLAYORDER=
